<svg width="100" height="75" xmlns="http://www.w3.org/2000/svg"><path fill="none" id="canvas_background" d="M-1-1h102v77H-1z"/><path id="svg_1" d="M67.394 25.897s3.068-10.863 0-14.543c-3.072-3.68-4.297-6.13-11.051-7.885s-4.294-1.405-9.205-1.226c-4.911.177-9.006 2.451-9.006 3.677 0 0-3.068.176-4.293 1.229-1.229 1.052-3.274 5.954-3.274 7.183s1.022 9.464 2.045 11.215l-1.218.35c-1.022 10.16 4.091 11.39 4.091 11.39 1.84 9.463 3.683 5.434 3.683 7.885s-1.843 1.578-1.843 1.578-1.634 3.853-5.725 5.255c-4.09 1.4-26.8 8.932-28.647 10.51-1.847 1.582-1.637 8.938-1.637 8.938h97.384s.213-7.356-1.634-8.938c-1.85-1.581-24.56-9.11-28.65-10.51-4.092-1.402-5.725-5.255-5.725-5.255s-1.843.873-1.843-1.578 1.843 1.578 3.686-7.886c0 0 5.11-1.228 4.09-11.389h-1.228z" stroke-width="1.5" stroke="#fff" fill="#7a85b8"/></svg>