<svg width="300" height="300" xmlns="http://www.w3.org/2000/svg"><path fill="none" id="canvas_background" d="M-1-1h302v302H-1z"/><path stroke="#0000bf" opacity=".8" id="svg_1" d="M259.066 67.918h-47.712V48.833H92.074v19.085H44.36c-14.047 0-25.447 11.4-25.447 25.446v132.004c0 14.047 11.4 25.447 25.447 25.447h214.705c14.047 0 25.447-11.4 25.447-25.447V93.364c0-14.046-11.4-25.446-25.447-25.446zm-107.359 168.57c-42.521 0-77.103-34.594-77.103-77.115 0-42.521 34.582-77.129 77.103-77.129s77.129 34.608 77.129 77.129c0 42.521-34.62 77.116-77.129 77.116zm0-128.81c-28.55 0-51.682 23.144-51.682 51.682 0 28.551 23.144 51.682 51.682 51.682 28.551 0 51.682-23.13 51.682-51.682.013-28.538-23.118-51.682-51.682-51.682z" stroke-width="6" fill="#ffaa56"/><path stroke="#000" id="svg_3" d="M152.067 121.39c-21.54 0-39 17.46-39 39 0 21.539 17.46 39 39 39s39-17.461 39-39c0-21.54-17.46-39-39-39zm0 73.326a7.53 7.53 0 1 1 7.529-7.53c0 4.16-3.37 7.53-7.529 7.53zm0-20.675-21.086-17.608h9.308v-23.556h23.558v23.556h9.306l-21.086 17.608z" stroke-width="6" fill="#ffaa56"/></svg>