<svg width="100" height="75" xmlns="http://www.w3.org/2000/svg"><path fill="none" id="canvas_background" d="M-1-1h102v77H-1z"/><path id="svg_1" d="M66.676 52.89c-3.632-1.454-5.082-5.45-5.082-5.45s-1.637.906-1.637-1.636 1.637 1.637 3.273-8.175c0 0 4.537-1.274 3.632-11.808h-1.09s2.723-11.262 0-15.077c-2.728-3.815-3.816-6.357-9.813-8.176s-3.812-1.457-8.172-1.27c-4.36.182-7.996 2.54-7.996 3.811 0 0-2.724.183-3.812 1.274-1.09 1.091-2.907 6.174-2.907 7.447s.908 9.812 1.816 11.628l-1.081.363c-.908 10.534 3.632 11.808 3.632 11.808 1.633 9.812 3.27 5.634 3.27 8.175s-1.637 1.637-1.637 1.637-1.45 3.995-5.082 5.448c-3.632 1.45-23.795 9.26-25.435 10.897-1.64 1.64-1.454 9.266-1.454 9.266h86.464s.189-7.627-1.45-9.266c-1.644-1.637-21.807-9.447-25.439-10.897zm-40.011-.553c-.318-.577-.475-.994-.475-.994s-1.386.766-1.386-1.387 1.386 1.387 2.772-6.927c0 0 3.847-1.078 3.077-10.008h-.924s.459-1.896.76-4.28c-.013-.988.02-2.04.119-3.196l.122-1.367c-.068-1.578-.343-3.013-1.001-3.934-2.31-3.23-3.235-5.387-8.314-6.927-5.08-1.54-3.234-1.235-6.927-1.078-3.697.154-6.777 2.153-6.777 3.234 0 0-2.31.154-3.234 1.078-.87.87-2.262 4.691-2.43 6.049v.901c.152 2.095.829 7.858 1.506 9.215l-.918.308c-.767 8.93 3.077 10.008 3.077 10.008 1.386 8.314 2.772 4.775 2.772 6.928s-1.386 1.386-1.386 1.386-1.229 3.391-4.309 4.617c-.196.077-.446.18-.744.295v16.794H3.89c-.093-4.1.247-9.392 2.393-11.532 1.143-1.139 4.887-3.013 20.382-9.183zM98.313 23.28c-.128-1.213-.407-2.294-.937-3.036-2.307-3.234-3.234-5.387-8.31-6.927-5.082-1.54-3.234-1.235-6.93-1.078-3.694.154-6.774 2.153-6.774 3.234 0 0-2.307.154-3.234 1.078-.87.873-2.275 4.723-2.432 6.068h.105l.257 2.93c.064.74.07 1.398.087 2.069.288 2.137.674 4.332 1.059 5.098l-.918.308c-.767 8.93 3.08 10.008 3.08 10.008 1.386 8.314 2.77 4.775 2.77 6.928s-1.387 1.386-1.387 1.386-.17.455-.523 1.084c15.305 6.097 19.018 7.958 20.147 9.094 2.15 2.14 2.487 7.428 2.394 11.531h1.54V56.03a4.491 4.491 0 0 1-.167-.067c-3.077-1.229-4.31-4.617-4.31-4.617s-1.388.767-1.388-1.386 1.389 1.386 2.772-6.928c0 0 2.58-.735 3.09-5.907v-3.937c-.004-.058-.004-.106-.01-.164h-.927s.69-2.855.937-5.97V23.28h.01z" stroke-width="1.5" stroke="#fff" fill="#ccab33"/></svg>